<svg xmlns="http://www.w3.org/2000/svg" version="1.1" width="324.99999999999994" height="324.99999999999994" viewBox="0 0 324.99999999999994 324.99999999999994"><defs><clipPath id="clip-1"><rect x="0" y="24.999999999999986" width="300" height="300"/></clipPath><clipPath id="clip-2"><rect x="0" y="24.999999999999986" width="300" height="300" transform="rotate(90 150.75 26.349999999999966)"/></clipPath><clipPath id="clip-3"><rect x="0" y="24.999999999999986" width="300" height="300" transform="rotate(-90 150.75 323.65)"/></clipPath><clipPath id="clip-4"><rect x="0" y="24.999999999999986" width="300" height="300" transform="rotate(-180 2.0999999999999943 174.99999999999997)"/></clipPath><clipPath id="clip-5"><rect x="0" y="24.999999999999986" width="300" height="300" transform=""/></clipPath></defs><path fill="none" stroke="#000000" d="M 0,325 L 0,25" style="stroke-width: 2px;opacity: 0.1" stroke-width="2" opacity="0.1"/><path fill="none" stroke="#000000" d="M 21.4286,325 L 21.4286,25" style="stroke-width: 2px;opacity: 0.1" stroke-width="2" opacity="0.1"/><path fill="none" stroke="#000000" d="M 42.8571,325 L 42.8571,25" style="stroke-width: 2px;opacity: 0.1" stroke-width="2" opacity="0.1"/><path fill="none" stroke="#000000" d="M 64.2857,325 L 64.2857,25" style="stroke-width: 2px;opacity: 0.1" stroke-width="2" opacity="0.1"/><path fill="none" stroke="#000000" d="M 85.7143,325 L 85.7143,25" style="stroke-width: 2px;opacity: 0.1" stroke-width="2" opacity="0.1"/><path fill="none" stroke="#000000" d="M 107.143,325 L 107.143,25" style="stroke-width: 2px;opacity: 0.1" stroke-width="2" opacity="0.1"/><path fill="none" stroke="#000000" d="M 128.571,325 L 128.571,25" style="stroke-width: 2px;opacity: 0.1" stroke-width="2" opacity="0.1"/><path fill="none" stroke="#000000" d="M 150,325 L 150,25" style="stroke-width: 2px;opacity: 0.1" stroke-width="2" opacity="0.1"/><path fill="none" stroke="#000000" d="M 171.429,325 L 171.429,25" style="stroke-width: 2px;opacity: 0.1" stroke-width="2" opacity="0.1"/><path fill="none" stroke="#000000" d="M 192.857,325 L 192.857,25" style="stroke-width: 2px;opacity: 0.1" stroke-width="2" opacity="0.1"/><path fill="none" stroke="#000000" d="M 214.286,325 L 214.286,25" style="stroke-width: 2px;opacity: 0.1" stroke-width="2" opacity="0.1"/><path fill="none" stroke="#000000" d="M 235.714,325 L 235.714,25" style="stroke-width: 2px;opacity: 0.1" stroke-width="2" opacity="0.1"/><path fill="none" stroke="#000000" d="M 257.143,325 L 257.143,25" style="stroke-width: 2px;opacity: 0.1" stroke-width="2" opacity="0.1"/><path fill="none" stroke="#000000" d="M 278.571,325 L 278.571,25" style="stroke-width: 2px;opacity: 0.1" stroke-width="2" opacity="0.1"/><path fill="none" stroke="#000000" d="M 300,325 L 300,25" style="stroke-width: 2px;opacity: 0.1" stroke-width="2" opacity="0.1"/><path fill="none" stroke="#000000" d="M 0,325 L 300,325" style="stroke-width: 2px;opacity: 0.1" stroke-width="2" opacity="0.1"/><path fill="none" stroke="#000000" d="M 0,303.571 L 300,303.571" style="stroke-width: 2px;opacity: 0.1" stroke-width="2" opacity="0.1"/><path fill="none" stroke="#000000" d="M 0,282.143 L 300,282.143" style="stroke-width: 2px;opacity: 0.1" stroke-width="2" opacity="0.1"/><path fill="none" stroke="#000000" d="M 0,260.714 L 300,260.714" style="stroke-width: 2px;opacity: 0.1" stroke-width="2" opacity="0.1"/><path fill="none" stroke="#000000" d="M 0,239.286 L 300,239.286" style="stroke-width: 2px;opacity: 0.1" stroke-width="2" opacity="0.1"/><path fill="none" stroke="#000000" d="M 0,217.857 L 300,217.857" style="stroke-width: 2px;opacity: 0.1" stroke-width="2" opacity="0.1"/><path fill="none" stroke="#000000" d="M 0,196.429 L 300,196.429" style="stroke-width: 2px;opacity: 0.1" stroke-width="2" opacity="0.1"/><path fill="none" stroke="#000000" d="M 0,175 L 300,175" style="stroke-width: 2px;opacity: 0.1" stroke-width="2" opacity="0.1"/><path fill="none" stroke="#000000" d="M 0,153.571 L 300,153.571" style="stroke-width: 2px;opacity: 0.1" stroke-width="2" opacity="0.1"/><path fill="none" stroke="#000000" d="M 0,132.143 L 300,132.143" style="stroke-width: 2px;opacity: 0.1" stroke-width="2" opacity="0.1"/><path fill="none" stroke="#000000" d="M 0,110.714 L 300,110.714" style="stroke-width: 2px;opacity: 0.1" stroke-width="2" opacity="0.1"/><path fill="none" stroke="#000000" d="M 0,89.2857 L 300,89.2857" style="stroke-width: 2px;opacity: 0.1" stroke-width="2" opacity="0.1"/><path fill="none" stroke="#000000" d="M 0,67.8571 L 300,67.8571" style="stroke-width: 2px;opacity: 0.1" stroke-width="2" opacity="0.1"/><path fill="none" stroke="#000000" d="M 0,46.4286 L 300,46.4286" style="stroke-width: 2px;opacity: 0.1" stroke-width="2" opacity="0.1"/><path fill="none" stroke="#000000" d="M 0,25 L 300,25" style="stroke-width: 2px;opacity: 0.1" stroke-width="2" opacity="0.1"/><path fill="none" stroke="#000000" d="M -3.45,180.6 C -3.1,178.5 0.75,175.35 1.8,175 C 0.75,174.65 -3.1,171.5 -3.45,169.4" transform="rotate(180 1.8000000000000114 174.99999999999997)" style="stroke-width: 2px;opacity: 1;stroke-linejoin: round;stroke-linecap: round" stroke-width="2" opacity="1" stroke-linejoin="round" stroke-linecap="round"/><path fill="none" stroke="#000000" d="M 150,175 S 150,175 1.05,175" style="stroke-width: 2px;opacity: 1" stroke-width="2" opacity="1"/><path fill="none" stroke="#000000" d="M 294.45,180.6 C 294.8,178.5 298.65,175.35 299.7,175 C 298.65,174.65 294.8,171.5 294.45,169.4" transform="" style="stroke-width: 2px;opacity: 1;stroke-linejoin: round;stroke-linecap: round" stroke-width="2" opacity="1" stroke-linejoin="round" stroke-linecap="round"/><path fill="none" stroke="#000000" d="M 150,175 S 150,175 298.95,175" style="stroke-width: 2px;opacity: 1" stroke-width="2" opacity="1"/><path fill="none" stroke="#000000" d="M 145.5,329.55 C 145.85,327.45 149.7,324.3 150.75,323.95 C 149.7,323.6 145.85,320.45 145.5,318.35" transform="rotate(90 150.75 323.94999999999993)" style="stroke-width: 2px;opacity: 1;stroke-linejoin: round;stroke-linecap: round" stroke-width="2" opacity="1" stroke-linejoin="round" stroke-linecap="round"/><path fill="none" stroke="#000000" d="M 150,175 S 150,175 150,323.95" style="stroke-width: 2px;opacity: 1" stroke-width="2" opacity="1"/><path fill="none" stroke="#000000" d="M 145.5,31.65 C 145.85,29.55 149.7,26.4 150.75,26.05 C 149.7,25.7 145.85,22.55 145.5,20.45" transform="rotate(-90 150.75 26.049999999999983)" style="stroke-width: 2px;opacity: 1;stroke-linejoin: round;stroke-linecap: round" stroke-width="2" opacity="1" stroke-linejoin="round" stroke-linecap="round"/><path fill="none" stroke="#000000" d="M 150,175 S 150,175 150,26.05" style="stroke-width: 2px;opacity: 1" stroke-width="2" opacity="1"/><path fill="none" stroke="#000000" d="M 171.429,180 L 171.429,170" style="stroke-width: 1px;opacity: 1" stroke-width="1" opacity="1"/><path fill="none" stroke="#000000" d="M 192.857,180 L 192.857,170" style="stroke-width: 1px;opacity: 1" stroke-width="1" opacity="1"/><path fill="none" stroke="#000000" d="M 214.286,180 L 214.286,170" style="stroke-width: 1px;opacity: 1" stroke-width="1" opacity="1"/><path fill="none" stroke="#000000" d="M 235.714,180 L 235.714,170" style="stroke-width: 1px;opacity: 1" stroke-width="1" opacity="1"/><path fill="none" stroke="#000000" d="M 257.143,180 L 257.143,170" style="stroke-width: 1px;opacity: 1" stroke-width="1" opacity="1"/><path fill="none" stroke="#000000" d="M 278.571,180 L 278.571,170" style="stroke-width: 1px;opacity: 1" stroke-width="1" opacity="1"/><path fill="none" stroke="#000000" d="M 128.571,180 L 128.571,170" style="stroke-width: 1px;opacity: 1" stroke-width="1" opacity="1"/><path fill="none" stroke="#000000" d="M 107.143,180 L 107.143,170" style="stroke-width: 1px;opacity: 1" stroke-width="1" opacity="1"/><path fill="none" stroke="#000000" d="M 85.7143,180 L 85.7143,170" style="stroke-width: 1px;opacity: 1" stroke-width="1" opacity="1"/><path fill="none" stroke="#000000" d="M 64.2857,180 L 64.2857,170" style="stroke-width: 1px;opacity: 1" stroke-width="1" opacity="1"/><path fill="none" stroke="#000000" d="M 42.8571,180 L 42.8571,170" style="stroke-width: 1px;opacity: 1" stroke-width="1" opacity="1"/><path fill="none" stroke="#000000" d="M 21.4286,180 L 21.4286,170" style="stroke-width: 1px;opacity: 1" stroke-width="1" opacity="1"/><path fill="none" stroke="#000000" d="M 145,153.571 L 155,153.571" style="stroke-width: 1px;opacity: 1" stroke-width="1" opacity="1"/><path fill="none" stroke="#000000" d="M 145,132.143 L 155,132.143" style="stroke-width: 1px;opacity: 1" stroke-width="1" opacity="1"/><path fill="none" stroke="#000000" d="M 145,110.714 L 155,110.714" style="stroke-width: 1px;opacity: 1" stroke-width="1" opacity="1"/><path fill="none" stroke="#000000" d="M 145,89.2857 L 155,89.2857" style="stroke-width: 1px;opacity: 1" stroke-width="1" opacity="1"/><path fill="none" stroke="#000000" d="M 145,67.8571 L 155,67.8571" style="stroke-width: 1px;opacity: 1" stroke-width="1" opacity="1"/><path fill="none" stroke="#000000" d="M 145,46.4286 L 155,46.4286" style="stroke-width: 1px;opacity: 1" stroke-width="1" opacity="1"/><path fill="none" stroke="#000000" d="M 145,196.429 L 155,196.429" style="stroke-width: 1px;opacity: 1" stroke-width="1" opacity="1"/><path fill="none" stroke="#000000" d="M 145,217.857 L 155,217.857" style="stroke-width: 1px;opacity: 1" stroke-width="1" opacity="1"/><path fill="none" stroke="#000000" d="M 145,239.286 L 155,239.286" style="stroke-width: 1px;opacity: 1" stroke-width="1" opacity="1"/><path fill="none" stroke="#000000" d="M 145,260.714 L 155,260.714" style="stroke-width: 1px;opacity: 1" stroke-width="1" opacity="1"/><path fill="none" stroke="#000000" d="M 145,282.143 L 155,282.143" style="stroke-width: 1px;opacity: 1" stroke-width="1" opacity="1"/><path fill="none" stroke="#000000" d="M 145,303.571 L 155,303.571" style="stroke-width: 1px;opacity: 1" stroke-width="1" opacity="1"/><path fill="none" stroke="#1fab54" d="M 144,33.55 C 144.45,30.85 149.4,26.8 150.75,26.35 C 149.4,25.9 144.45,21.85 144,19.15" transform="rotate(-90 150.75 26.349999999999966)" style="stroke-width: 3px;stroke-linejoin: round;stroke-linecap: round" stroke-width="3" clip-path="url(#clip-2)" stroke-linejoin="round" stroke-linecap="round"/><path fill="none" stroke="#1fab54" d="M 150,175 S 150,175 150,26.35" style="stroke-width: 3px" stroke-width="3" clip-path="url(#clip-1)"/><path fill="none" stroke="#1fab54" d="M 144,330.85 C 144.45,328.15 149.4,324.1 150.75,323.65 C 149.4,323.2 144.45,319.15 144,316.45" transform="rotate(90 150.75 323.65)" style="stroke-width: 3px;stroke-linejoin: round;stroke-linecap: round" stroke-width="3" clip-path="url(#clip-3)" stroke-linejoin="round" stroke-linecap="round"/><path fill="none" stroke="#1fab54" d="M 150,175 S 150,175 150,323.65" style="stroke-width: 3px" stroke-width="3" clip-path="url(#clip-1)"/><path fill="none" stroke="#11accd" d="M -4.65,182.2 C -4.2,179.5 0.75,175.45 2.1,175 C 0.75,174.55 -4.2,170.5 -4.65,167.8" transform="rotate(180 2.0999999999999943 174.99999999999997)" style="stroke-width: 3px;stroke-linejoin: round;stroke-linecap: round" stroke-width="3" clip-path="url(#clip-4)" stroke-linejoin="round" stroke-linecap="round"/><path fill="none" stroke="#11accd" d="M 150,175 S 150,175 1.35,175" style="stroke-width: 3px" stroke-width="3" clip-path="url(#clip-1)"/><path fill="none" stroke="#11accd" d="M 292.65,182.2 C 293.1,179.5 298.05,175.45 299.4,175 C 298.05,174.55 293.1,170.5 292.65,167.8" transform="" style="stroke-width: 3px;stroke-linejoin: round;stroke-linecap: round" stroke-width="3" clip-path="url(#clip-5)" stroke-linejoin="round" stroke-linecap="round"/><path fill="none" stroke="#11accd" d="M 150,175 S 150,175 298.65,175" style="stroke-width: 3px" stroke-width="3" clip-path="url(#clip-1)"/></svg>